<?xml version="1.0" encoding="utf-8"?>
<!-- Generator: Adobe Illustrator 16.0.4, SVG Export Plug-In . SVG Version: 6.00 Build 0)  -->
<!DOCTYPE svg PUBLIC "-//W3C//DTD SVG 1.1//EN" "http://www.w3.org/Graphics/SVG/1.1/DTD/svg11.dtd">
<svg version="1.1" id="레이어_1" xmlns="http://www.w3.org/2000/svg" xmlns:xlink="http://www.w3.org/1999/xlink" x="0px"
	 y="0px" width="515.365px" height="124.047px" viewBox="0 0 515.365 124.047" enable-background="new 0 0 515.365 124.047"
	 xml:space="preserve">
<g>
	<g>
		<g>
			<path fill="#FFFFFF" d="M107.717,9.94v39.72h-10.21V9.94H85.864V1.105h33.497V9.94H107.717z"/>
			<path fill="#FFFFFF" d="M137.271,49.66V27.499L121.132,1.105h11.953l7.043,13.294c0.34,0.646,0.699,1.506,1.071,2.514
				c0.353,1.026,0.746,2.186,1.126,3.513c0.313-1.104,0.65-2.169,1.041-3.157c0.374-1.001,0.812-1.978,1.285-2.94l7.019-13.223h11.9
				l-16.11,26.393V49.66H137.271z"/>
			<path fill="#FFFFFF" d="M166.375,49.66V1.105h11.721c6.238,0,10.852,1.213,13.838,3.635c2.967,2.459,4.459,6.212,4.459,11.3
				c0,4.7-1.505,8.38-4.498,11.079c-3.021,2.656-7.168,4.008-12.476,4.008h-2.78V49.66H166.375z M176.64,23.027h1.457
				c2.78,0,4.796-0.6,6.044-1.75c1.243-1.188,1.885-3.056,1.885-5.654c0-2.372-0.643-4.126-1.885-5.211
				c-1.248-1.113-3.264-1.662-6.044-1.662h-1.457V23.027z"/>
			<path fill="#FFFFFF" d="M250.01,25.48c0,3.459-0.637,6.739-1.913,9.848c-1.268,3.106-3.062,5.818-5.477,8.178
				c-2.467,2.387-5.243,4.251-8.346,5.532c-3.082,1.293-6.319,1.907-9.605,1.907c-2.906,0-5.769-0.5-8.551-1.504
				c-2.758-1.005-5.325-2.439-7.661-4.329c-2.991-2.421-5.265-5.315-6.875-8.712c-1.594-3.409-2.37-7.019-2.37-10.92
				c0-3.496,0.604-6.768,1.855-9.841c1.266-3.072,3.125-5.784,5.543-8.188c2.388-2.343,5.165-4.194,8.295-5.511
				C218.064,0.635,221.32,0,224.669,0c3.286,0,6.523,0.635,9.661,1.941c3.135,1.316,5.909,3.168,8.291,5.511
				c2.442,2.403,4.242,5.12,5.501,8.211C249.378,18.74,250.01,22.014,250.01,25.48z M224.669,41.708
				c4.294,0,7.85-1.549,10.669-4.637c2.793-3.077,4.208-6.937,4.208-11.591c0-4.615-1.428-8.459-4.26-11.615
				c-2.842-3.124-6.374-4.699-10.617-4.699c-4.332,0-7.885,1.571-10.758,4.676c-2.809,3.147-4.269,7.011-4.269,11.639
				c0,4.711,1.438,8.55,4.216,11.629C216.642,40.177,220.266,41.708,224.669,41.708z"/>
			<path fill="#FFFFFF" d="M279.784,24.064h21.715c0.022,0.292,0.053,0.572,0.069,0.915c0.004,0.343,0.013,0.854,0.013,1.527
				c0,7.265-2.037,13.176-6.101,17.678c-4.096,4.51-9.342,6.761-15.797,6.761c-7.397,0-13.496-2.377-18.274-7.193
				c-4.792-4.812-7.197-10.927-7.197-18.35c0-7.337,2.42-13.399,7.201-18.196C266.233,2.397,272.306,0,279.685,0
				c3.873,0,7.43,0.835,10.66,2.481c3.24,1.688,6.102,4.15,8.641,7.459l-6.877,5.145c-1.715-2.146-3.489-3.717-5.379-4.673
				c-1.891-0.953-4.057-1.443-6.522-1.443c-4.707,0-8.479,1.499-11.302,4.478c-2.801,2.98-4.221,6.956-4.221,11.956
				c0,4.924,1.42,8.872,4.244,11.893c2.834,3.01,6.529,4.526,11.062,4.526c3.341,0,6.06-0.764,8.138-2.392
				c2.084-1.62,3.123-3.675,3.123-6.273v-0.535h-11.468L279.784,24.064L279.784,24.064z"/>
			<path fill="#FFFFFF" d="M341.392,49.66h-11.75l-12.527-22.693V49.66h-10.166V1.105h14.58c5.775,0,10.105,1.122,12.99,3.421
				c2.885,2.298,4.332,5.717,4.332,10.333c0,3.348-0.977,6.21-2.965,8.553c-1.959,2.377-4.527,3.753-7.625,4.163L341.392,49.66z
				 M317.114,21.808h1.521c4.156,0,6.871-0.452,8.18-1.398c1.324-0.895,1.979-2.51,1.979-4.786c0-2.372-0.717-4.093-2.117-5.103
				c-1.41-1.003-4.117-1.509-8.041-1.509h-1.521L317.114,21.808L317.114,21.808z"/>
			<path fill="#FFFFFF" d="M341.392,49.66L359.49,1.105h11.611l18.387,48.555h-11.571l-3.847-10.321h-18.45l-3.34,10.321H341.392z
				 M371.677,31.203l-5.332-15.697c-0.152-0.472-0.342-1.258-0.578-2.41c-0.233-1.101-0.49-2.497-0.752-4.127
				c-0.281,1.552-0.559,2.988-0.82,4.229c-0.258,1.245-0.452,2.093-0.571,2.505l-5.134,15.5H371.677z"/>
			<path fill="#FFFFFF" d="M393.519,49.66V1.105h11.721c6.236,0,10.853,1.213,13.83,3.635c2.979,2.459,4.469,6.212,4.469,11.3
				c0,4.7-1.504,8.38-4.504,11.079c-3.004,2.656-7.168,4.008-12.479,4.008h-2.775V49.66H393.519z M403.778,23.027h1.461
				c2.779,0,4.775-0.6,6.031-1.75c1.256-1.188,1.891-3.056,1.891-5.654c0-2.372-0.635-4.126-1.891-5.211
				c-1.256-1.113-3.252-1.662-6.031-1.662h-1.461V23.027z"/>
			<path fill="#FFFFFF" d="M428.253,49.66V1.105h10.188v19.486h20.623V1.105h10.188V49.66h-10.188V29.376H438.44V49.66H428.253z"/>
			<path fill="#FFFFFF" d="M489.063,49.66V27.499L472.938,1.105h11.928l7.066,13.294c0.342,0.646,0.688,1.506,1.062,2.514
				c0.371,1.026,0.742,2.186,1.144,3.513c0.293-1.104,0.639-2.169,1.02-3.157c0.373-1.001,0.808-1.978,1.279-2.94l7.004-13.223
				h11.926L499.239,27.5v22.16H489.063z"/>
		</g>
		<g>
			<path fill="#FFFFFF" d="M85.864,116.594l5.67-6.541c0.727,1.771,1.861,3.207,3.443,4.24c1.582,1.029,3.373,1.547,5.338,1.547
				c2.364,0,4.278-0.594,5.648-1.745c1.399-1.144,2.098-2.704,2.098-4.638c0-2.308-2.324-4.595-6.918-6.881
				c-1.504-0.726-2.7-1.338-3.553-1.787c-4.168-2.203-7.058-4.385-8.651-6.478c-1.608-2.128-2.397-4.638-2.397-7.539
				c0-4.012,1.537-7.292,4.656-9.876c3.096-2.588,7.152-3.882,12.108-3.882c2.884,0,5.37,0.522,7.466,1.549
				c2.078,1.037,3.944,2.638,5.521,4.839l-5.99,5.879c-0.714-1.443-1.672-2.504-2.849-3.195c-1.184-0.68-2.6-1.047-4.279-1.047
				c-2.001,0-3.645,0.515-4.876,1.551c-1.236,1.022-1.845,2.371-1.845,3.988c0,2.572,2.456,4.931,7.343,7.053
				c0.97,0.416,1.719,0.754,2.239,1.008c4.046,1.857,7.019,3.998,8.979,6.331c1.926,2.388,2.896,5.073,2.896,8.101
				c0,4.555-1.532,8.209-4.587,10.905c-3.028,2.714-7.119,4.071-12.255,4.071c-3.642,0-6.773-0.623-9.36-1.908
				C89.096,120.852,87.156,118.989,85.864,116.594z"/>
			<path fill="#FFFFFF" d="M124.984,122.745V74.168h28.021v8.778h-17.856v9.974h17.856v8.822h-17.856v12.187h17.856v8.815H124.984z"
				/>
			<path fill="#FFFFFF" d="M210.22,98.569c0,3.465-0.625,6.746-1.89,9.855c-1.271,3.115-3.104,5.816-5.489,8.168
				c-2.47,2.396-5.262,4.259-8.341,5.546c-3.113,1.286-6.315,1.909-9.621,1.909c-2.937,0-5.754-0.498-8.542-1.512
				c-2.801-1.005-5.333-2.438-7.664-4.337c-2.999-2.413-5.3-5.351-6.87-8.702c-1.604-3.406-2.411-7.025-2.411-10.929
				c0-3.489,0.646-6.763,1.908-9.834c1.254-3.071,3.085-5.788,5.511-8.192c2.399-2.342,5.171-4.189,8.316-5.496
				c3.147-1.312,6.396-1.943,9.751-1.943c3.306,0,6.518,0.633,9.646,1.943c3.15,1.307,5.916,3.154,8.316,5.496
				c2.402,2.404,4.243,5.133,5.494,8.219C209.595,91.836,210.22,95.11,210.22,98.569z M184.879,114.804
				c4.292,0,7.862-1.544,10.645-4.646c2.824-3.093,4.226-6.93,4.226-11.59c0-4.611-1.425-8.476-4.242-11.607
				c-2.854-3.162-6.412-4.705-10.627-4.705c-4.334,0-7.921,1.539-10.751,4.688c-2.836,3.146-4.266,6.988-4.266,11.625
				c0,4.678,1.401,8.559,4.206,11.631C176.879,113.271,180.444,114.804,184.879,114.804z"/>
			<path fill="#FFFFFF" d="M258.324,74.168v30.248c0,6.59-1.697,11.487-5.104,14.734c-3.412,3.288-8.537,4.896-15.379,4.896
				c-6.964,0-12.147-1.608-15.564-4.896c-3.381-3.247-5.099-8.145-5.099-14.734V74.168h10.113v28.601
				c0,4.007,0.883,7.038,2.62,9.058c1.727,2.024,4.305,3.032,7.749,3.032c3.467,0,6.124-1.008,7.896-3.032
				c1.76-2.037,2.655-5.051,2.655-9.058V74.168H258.324z"/>
			<path fill="#FFFFFF" d="M267.981,122.745V74.168h10.201v39.761h16.236v8.815H267.981z"/>
		</g>
	</g>
	<polygon fill="#FFFFFF" points="23.896,49.649 23.896,82.256 47.769,47.998 47.79,0.883 0,0.883 0,49.649 	"/>
</g>
</svg>
